<svg width="122" height="50" viewBox="0 0 122 50" fill="none" xmlns="http://www.w3.org/2000/svg">
<path d="M0 49.9456L0.00268567 0H38V49.998C38 49.998 0.0277716 50.0156 0 49.9456ZM27.494 29.2506C29.4082 28.6319 31.5141 27.1693 32.0923 26.0572L32.326 25.6077V22.8142V20.0206L32.0691 19.7483C31.9279 19.5985 31.5828 19.3604 31.3023 19.2192L30.7922 18.9625L24.4179 18.9668C18.4124 18.9709 18.0231 18.9786 17.6892 19.1001C16.8828 19.3936 16.5121 19.8789 16.5121 20.6412C16.5121 21.3706 16.8443 21.8092 17.6835 22.1877L18.0862 22.3694L22.5522 22.4044L27.0181 22.4395L27.0157 23.4212C27.0131 24.5142 26.918 24.9118 26.5396 25.4122C26.3093 25.7167 26.0189 25.8918 25.5539 26.0065C25.3677 26.0524 22.9981 26.0867 19.0507 26.1006L12.8404 26.1225L12.2786 25.8415C11.9695 25.6869 11.5602 25.4317 11.369 25.2742L11.0212 24.9881V17.1457V9.30328L11.3612 9.01662C11.5482 8.85897 11.9315 8.6196 12.213 8.48474L12.7248 8.23951H19.0361H25.3475L25.7801 8.44807C26.0181 8.56278 26.4022 8.79992 26.6338 8.97504L27.0548 9.29342V11.6278V13.9622L27.2734 14.2924C27.7066 14.9466 28.5042 15.264 29.7118 15.2627C30.5293 15.2619 31.0203 15.1801 31.4405 14.9748C31.7609 14.8182 32.2311 14.3423 32.2909 14.1141C32.3139 14.0264 32.323 12.7239 32.3111 11.2198L32.2895 8.48493L32.0749 8.11401C31.3357 6.83602 28.5897 5.21736 26.5837 4.87713C26.2999 4.82899 23.6812 4.80347 19.031 4.80347C11.3153 4.80347 11.4269 4.79849 10.2891 5.19218C8.49626 5.81242 6.45727 7.23265 5.96435 8.20446L5.7865 8.55507L5.76726 17.075L5.74799 25.595L5.97648 26.0397C6.50048 27.0596 8.45589 28.4796 10.2149 29.1176C11.2341 29.4873 11.0082 29.4786 19.221 29.4647L26.8717 29.4518L27.494 29.2506Z" fill="#333333"/>
<path d="M42 49.9448C42.0009 33.2965 42.0018 16.6483 42.0026 0C54.3351 0 66.6675 0 79 0C79 16.6657 79 33.3315 79 49.9973C66.6668 49.9859 54.3328 50.0333 42 49.9448ZM50.7603 29.4821C52.0042 29.247 52.8295 27.8881 52.8285 26.9555C52.8265 25.2891 52.8768 15.5444 52.8745 12.4467C58.4186 17.9185 63.6874 23.6657 69.2845 29.0791C70.9925 30.141 73.4316 29.3128 73.4754 26.8693C73.528 23.9825 73.4657 8.3366 73.4754 5.87628C73.4811 4.4234 71.3229 4.39499 70.5758 4.75141C69.5372 5.24693 68.3456 5.78393 68.3579 7.61813C68.3871 11.9829 68.314 17.3839 68.2471 21.7496C62.7319 16.4358 57.8319 10.4334 52.107 5.36766C49.5748 3.12712 47.4107 4.4323 47.4078 7.32285C47.4012 13.7612 47.4517 26.4649 47.4593 28.3171C47.4646 29.6505 49.4884 29.7226 50.7603 29.4821Z" fill="#333333"/>
<path d="M83 49.9456L83.0027 0H122V49.998C122 49.998 83.0285 50.0156 83 49.9456ZM92.9387 29.2452C93.6003 28.9667 93.9727 28.5622 94.5611 27.4834L95.5264 25.9807H109.476C109.476 25.9807 111.002 28.5207 111.139 28.6664C111.671 29.2311 112.474 29.4846 113.735 29.4852C114.924 29.5501 116.17 28.2393 116.175 27.7286C116.176 27.6294 105.277 6.10547 105.124 5.92541C104.556 5.25445 103.694 4.88157 102.574 4.82252C101.373 4.71652 100.243 5.37391 99.377 6.98859C98.3115 8.97597 93.8338 17.6609 92.7248 19.7912C89.7734 25.4604 88.7407 27.6874 88.859 28.1273C88.9169 28.3428 89.577 29.1443 90.398 29.3373C91.3041 29.5502 92.5352 29.4151 92.9387 29.2452ZM97.3301 22.4366C97.3843 22.1954 102.544 12.3808 102.607 12.3992C102.684 12.4218 107.683 22.3226 107.685 22.457C107.686 22.5263 97.3083 22.5331 97.3301 22.4366Z" fill="#333333"/>
</svg>
